<svg width="256" height="256" viewBox="0 0 256 256" fill="none" xmlns="http://www.w3.org/2000/svg">
<path d="M34.34 122.34L106.34 50.34C107.841 48.8389 109.877 47.9955 112 47.9955C114.123 47.9955 116.159 48.8389 117.66 50.34C119.161 51.8411 120.004 53.8771 120.004 56C120.004 58.1229 119.161 60.1589 117.66 61.66L59.31 120L216 120C218.122 120 220.157 120.843 221.657 122.343C223.157 123.843 224 125.878 224 128C224 130.122 223.157 132.157 221.657 133.657C220.157 135.157 218.122 136 216 136H59.31L117.66 194.34C119.161 195.841 120.004 197.877 120.004 200C120.004 202.123 119.161 204.159 117.66 205.66C116.159 207.161 114.123 208.004 112 208.004C109.877 208.004 107.841 207.161 106.34 205.66L34.34 133.66C33.5962 132.917 33.0061 132.035 32.6035 131.064C32.2009 130.092 31.9937 129.051 31.9937 128C31.9937 126.949 32.2009 125.908 32.6035 124.936C33.0061 123.965 33.5962 123.083 34.34 122.34Z" fill="#314584"/>
</svg>
