<svg width="241" height="241" viewBox="0 0 241 241" fill="none" xmlns="http://www.w3.org/2000/svg">
<path d="M58.4827 36.4713L120.5 98.4887L182.196 36.7927C183.559 35.3421 185.2 34.1817 187.023 33.3811C188.845 32.5805 190.81 32.1561 192.8 32.1333C197.061 32.1333 201.148 33.8261 204.161 36.8391C207.174 39.8522 208.867 43.9389 208.867 48.2C208.904 50.1698 208.539 52.1265 207.793 53.95C207.047 55.7734 205.936 57.4252 204.529 58.804L142.029 120.5L204.529 182.999C207.177 185.59 208.729 189.098 208.867 192.8C208.867 197.061 207.174 201.148 204.161 204.161C201.148 207.174 197.061 208.867 192.8 208.867C190.752 208.952 188.709 208.61 186.801 207.863C184.892 207.116 183.16 205.981 181.714 204.529L120.5 142.511L58.6433 204.368C57.2858 205.77 55.664 206.89 53.8716 207.662C52.0791 208.434 50.1515 208.843 48.2 208.867C43.9388 208.867 39.8522 207.174 36.8391 204.161C33.8261 201.148 32.1333 197.061 32.1333 192.8C32.0959 190.83 32.4613 188.874 33.2073 187.05C33.9533 185.227 35.064 183.575 36.4713 182.196L98.9706 120.5L36.4713 58.0007C33.8233 55.4101 32.2705 51.902 32.1333 48.2C32.1333 43.9389 33.8261 39.8522 36.8391 36.8391C39.8522 33.8261 43.9388 32.1333 48.2 32.1333C52.056 32.1815 55.7513 33.74 58.4827 36.4713Z" fill="#314584"/>
</svg>
