<svg width="256" height="256" viewBox="0 0 256 256" fill="none" xmlns="http://www.w3.org/2000/svg">
<path d="M221.66 133.66L149.66 205.66C148.159 207.161 146.123 208.004 144 208.004C141.877 208.004 139.841 207.161 138.34 205.66C136.839 204.159 135.996 202.123 135.996 200C135.996 197.877 136.839 195.841 138.34 194.34L196.69 136H40C37.8783 136 35.8434 135.157 34.3431 133.657C32.8429 132.157 32 130.122 32 128C32 125.878 32.8429 123.843 34.3431 122.343C35.8434 120.843 37.8783 120 40 120H196.69L138.34 61.66C136.839 60.1589 135.996 58.1229 135.996 56C135.996 53.8771 136.839 51.8411 138.34 50.34C139.841 48.8389 141.877 47.9955 144 47.9955C146.123 47.9955 148.159 48.8389 149.66 50.34L221.66 122.34C222.404 123.083 222.994 123.965 223.396 124.936C223.799 125.908 224.006 126.949 224.006 128C224.006 129.051 223.799 130.092 223.396 131.064C222.994 132.035 222.404 132.917 221.66 133.66Z" fill="#314584"/>
</svg>
